<svg width="19" height="19" viewBox="0 0 19 19" fill="none" xmlns="http://www.w3.org/2000/svg">
<g clip-path="url(#clip0_27893_383)">
<path d="M14.2847 1.663C14.7477 1.66109 15.2065 1.75088 15.6346 1.92719C16.0628 2.1035 16.4517 2.36283 16.7791 2.69023C17.1065 3.01763 17.3659 3.40662 17.5422 3.83475C17.7185 4.26288 17.8083 4.72169 17.8064 5.1847V13.7941C17.8083 14.2571 17.7185 14.7159 17.5422 15.144C17.3659 15.5722 17.1065 15.9612 16.7791 16.2886C16.4517 16.616 16.0628 16.8753 15.6346 17.0516C15.2065 17.2279 14.7477 17.3177 14.2847 17.3158H5.67528C5.21227 17.3177 4.75347 17.2279 4.32533 17.0516C3.8972 16.8753 3.50822 16.616 3.18081 16.2886C2.85342 15.9612 2.59408 15.5722 2.41777 15.144C2.24147 14.7159 2.15168 14.2571 2.15358 13.7941V5.1847C2.15168 4.72169 2.24147 4.26288 2.41777 3.83475C2.59408 3.40662 2.85342 3.01763 3.18081 2.69023C3.50822 2.36283 3.8972 2.1035 4.32533 1.92719C4.75347 1.75088 5.21227 1.66109 5.67528 1.663H14.2847ZM5.67528 0.489395C3.09228 0.489395 0.97998 2.6026 0.97998 5.1847V13.7941C0.97998 16.3771 3.09318 18.4894 5.67528 18.4894H14.2847C16.8677 18.4894 18.98 16.3762 18.98 13.7941V5.1847C18.98 2.6017 16.8668 0.489395 14.2847 0.489395H5.67528Z" fill="white"/>
<path d="M9.97998 6.04599C11.8583 6.04599 13.4243 7.61199 13.4243 9.48939C13.4243 11.3677 11.8583 12.9337 9.97998 12.9337C8.10168 12.9337 6.53658 11.3677 6.53658 9.48939C6.53658 7.61109 8.10258 6.04599 9.97998 6.04599ZM9.97998 4.87239C7.39698 4.87239 5.36298 6.98559 5.36298 9.48939C5.36298 11.9941 7.47618 14.1064 9.97998 14.1064C12.4847 14.1064 14.597 11.9941 14.597 9.48939C14.597 6.98559 12.563 4.87239 9.97998 4.87239ZM14.75 5.73639C15.0197 5.73639 15.2784 5.62924 15.4691 5.43852C15.6598 5.2478 15.767 4.98912 15.767 4.71939C15.767 4.44967 15.6598 4.19099 15.4691 4.00026C15.2784 3.80954 15.0197 3.70239 14.75 3.70239C14.4803 3.70239 14.2216 3.80954 14.0308 4.00026C13.8401 4.19099 13.733 4.44967 13.733 4.71939C13.733 4.98912 13.8401 5.2478 14.0308 5.43852C14.2216 5.62924 14.4803 5.73639 14.75 5.73639Z" fill="white"/>
</g>
<defs>
<clipPath id="clip0_27893_383">
<rect width="18" height="18" fill="white" transform="translate(0.97998 0.489395)"/>
</clipPath>
</defs>
</svg>
