<svg width="39" height="39" viewBox="0 0 39 39" fill="none" xmlns="http://www.w3.org/2000/svg">
<rect x="0.97998" y="0.489395" width="38" height="38" rx="19" fill="#433447"/>
<g clip-path="url(#clip0_27893_386)">
<path d="M25.1991 25.4534C24.7311 25.1414 24.264 24.6742 23.796 24.2842C23.4849 23.9731 22.8617 23.35 22.7049 23.35C22.4717 23.4271 22.3157 24.0511 22.3157 24.5962C22.3157 24.6742 22.3157 25.2194 21.9257 25.5314C21.6146 25.8434 21.0686 25.9214 20.9914 25.9214H19.5103C18.7311 25.9214 16.0817 25.7654 13.7443 23.5831C10.8609 20.9345 8.44543 15.9468 8.28857 15.7137C8.21229 15.3237 8.13429 14.7785 8.44543 14.4665C8.75743 14.1545 9.30257 14.0765 9.53657 14.0765H12.8091C12.8863 14.0765 13.2763 14.1545 13.5891 14.3105C13.9003 14.4665 14.0563 14.8565 14.0563 14.8565C14.0563 14.8565 14.5234 15.9468 15.2246 16.96C16.2377 18.5182 16.7049 18.9082 16.8617 18.9862C17.0169 18.6742 17.0949 17.6611 17.0169 16.726C17.0169 16.3368 16.9397 15.8688 16.7829 15.7137C16.6106 15.5623 16.389 15.4791 16.1597 15.4797L15.6146 15.0117C15.5366 14.4665 16.0817 14.0774 16.4717 13.9214C17.0169 13.6865 17.874 13.6094 18.8871 13.6094H19.4323C20.3674 13.6094 20.6794 13.6865 21.0694 13.7654C22.3937 14.0765 22.3157 15.0897 22.3157 16.3368V17.9722C22.3157 18.2842 22.3157 18.7514 22.3929 18.9854C22.5497 18.9074 23.0949 18.4394 24.03 17.0371C24.6531 16.1028 25.1211 15.0888 25.1991 14.8557C25.3543 14.5437 25.6663 14.1537 26.4454 14.1537H30.108C30.8871 14.1537 31.3543 14.3877 31.5103 14.8557C31.7443 15.3228 31.6663 16.18 29.64 18.4394C29.3289 18.7514 29.0949 19.0634 28.8609 19.2965C28.3937 19.8425 27.9266 20.3877 27.9266 20.5437C28.0037 20.6208 28.4717 21.0108 28.9389 21.4008C30.108 22.3351 30.8871 23.1922 31.2763 23.8162C31.6663 24.4394 31.5883 24.8294 31.5103 25.1405C31.1991 25.8425 30.264 25.9205 30.03 25.9205H26.8354C26.5234 25.9205 25.9003 25.8425 25.1983 25.4525L25.1991 25.4534ZM22.7049 22.1028C23.4069 22.1028 24.03 22.726 24.6531 23.35C25.0431 23.7391 25.4331 24.1291 25.8223 24.3622C26.3674 24.6742 26.8354 24.6742 26.9134 24.6742H29.952C30.108 24.6742 30.264 24.5971 30.342 24.5971C30.342 24.5971 30.342 24.5182 30.264 24.4402C29.952 23.8951 29.1729 23.116 28.1597 22.3368C27.2254 21.5568 26.7574 21.1677 26.6794 20.6225C26.6014 19.9994 27.0686 19.5314 27.9257 18.5182C28.1597 18.2851 28.3937 17.9731 28.7057 17.6611C29.952 16.2588 30.264 15.6357 30.342 15.3237H26.2114C26.0563 15.6357 25.5883 16.726 24.9651 17.6611C23.4849 19.8434 22.7829 20.1554 22.3157 20.1554C22.1597 20.1554 22.0037 20.1554 21.8477 20.0765C21.0686 19.6094 21.0686 18.6742 21.1466 17.8951V16.258C21.2246 14.9337 21.1466 14.9337 20.8354 14.8565C20.5234 14.7785 20.2894 14.7785 19.3543 14.7005H18.8091C18.342 14.7005 17.796 14.7005 17.3289 14.7777L17.562 15.0117C18.03 15.5577 18.03 16.5708 18.03 16.726C18.1071 17.9731 18.1071 19.6874 17.25 20.0774C17.0949 20.1545 16.9389 20.1545 16.7829 20.1545C16.0817 20.1545 15.3026 19.4534 14.1343 17.5831C13.5103 16.6488 12.9651 15.4797 12.9651 15.4017L12.8871 15.3237C12.8091 15.3237 12.7311 15.2465 12.6531 15.2465H9.45857C9.92571 16.1808 12.1071 20.3894 14.5234 22.648C16.6277 24.5962 19.0431 24.6742 19.5103 24.6742H20.9906C20.9906 24.6742 21.1466 24.5971 21.2246 24.5971V24.5182C21.2246 24.2842 21.2246 22.4928 22.4717 22.1808C22.5489 22.1037 22.6277 22.1037 22.7049 22.1037V22.1028Z" fill="white"/>
</g>
<defs>
<clipPath id="clip0_27893_386">
<rect width="24" height="12.8571" fill="white" transform="translate(7.97998 13.0608)"/>
</clipPath>
</defs>
</svg>
